# xmcd CD database file
#
# Track frame offsets:
#        150
#        17622
#        37537
#        53469
#        74299
#        92899
#        105491
#        122086
#
# Disc length: 1895 seconds
#
# Revision: 0
# Processed by: cddbd v1.5.2PL0 Copyright (c) Steve Scherf et al.
# Submitted via: CUERipper 2.1.5
#
DISCID=55076508
DTITLE=Brian Keith Wallen - The Stompboard Sessions
DYEAR=1900
DGENRE=
TTITLE0=Her Love
TTITLE1=Burn
TTITLE2=Trouble
TTITLE3=Rattling Chains
TTITLE4=Hometown
TTITLE5=Devil Blues
TTITLE6=Cincy Blues
TTITLE7=Tied
EXTD=
EXTT0=
EXTT1=
EXTT2=
EXTT3=
EXTT4=
EXTT5=
EXTT6=
EXTT7=
PLAYORDER=
